<svg height="512pt" viewBox="-76 0 512 512" width="512pt" xmlns="http://www.w3.org/2000/svg"><path d="m300 452c0 44.75-74.050781 60-120 60-45.539062 0-120-15.101562-120-60 0-29.828125 36.929688-52.871094 94.070312-58.699219h51.859376c57.140624 5.828125 94.070312 28.871094 94.070312 58.699219zm0 0" fill="#8bf2cf"/><path d="m300 452c0 44.75-74.050781 60-120 60v-118.699219h25.929688c57.140624 5.828125 94.070312 28.871094 94.070312 58.699219zm0 0" fill="#57d9ad"/><path d="m180 460.375-137.34375-164.136719c-27.507812-32.457031-42.65625-73.738281-42.65625-116.238281 0-99.253906 80.746094-180 180-180s180 80.746094 180 180c0 42.519531-15.160156 83.816406-42.691406 116.277344zm0 0" fill="#ff637b"/><path d="m180 0v460.375l137.308594-164.097656c27.53125-32.460938 42.691406-73.757813 42.691406-116.277344 0-99.253906-80.746094-180-180-180zm0 0" fill="#e63950"/><path d="m300 180c0 44.328125-24.148438 83.109375-60 103.890625h-120c-35.851562-20.78125-60-59.5625-60-103.890625 0-66.171875 53.828125-120 120-120s120 53.828125 120 120zm0 0" fill="#fff7cc"/><path d="m300 180c0 44.328125-24.148438 83.109375-60 103.890625h-60v-223.890625c66.171875 0 120 53.828125 120 120zm0 0" fill="#ffe6b3"/><path d="m240 270v13.890625c-17.660156 10.238281-38.160156 16.109375-60 16.109375s-42.339844-5.871094-60-16.109375v-13.949219c.039062-33.0625 26.941406-59.941406 60-59.941406 33.078125 0 60 26.921875 60 60zm0 0" fill="#725d57"/><path d="m180 120c-24.808594 0-45 20.191406-45 45s20.191406 45 45 45 45-20.191406 45-45-20.191406-45-45-45zm0 0" fill="#ffbfab"/><path d="m180 210v-90c24.808594 0 45 20.191406 45 45s-20.191406 45-45 45zm0 0" fill="#ffa78f"/><path d="m240 270v13.890625c-17.660156 10.238281-38.160156 16.109375-60 16.109375v-90c33.078125 0 60 26.921875 60 60zm0 0" fill="#53433f"/></svg>